<?xml version="1.0" standalone="no"?>
<!DOCTYPE svg PUBLIC "-//W3C//DTD SVG 20010904//EN"
 "http://www.w3.org/TR/2001/REC-SVG-20010904/DTD/svg10.dtd">
<svg version="1.0" xmlns="http://www.w3.org/2000/svg"
 width="360.000000pt" height="360.000000pt" viewBox="0 0 360.000000 360.000000"
 preserveAspectRatio="xMidYMid meet">
<metadata>
Created by potrace 1.16, written by Peter Selinger 2001-2019
</metadata>
<g transform="translate(0.000000,360.000000) scale(0.100000,-0.100000)"
fill="#000000" stroke="none">
<path d="M2016 3587 c-10 -8 -65 -110 -121 -228 -57 -117 -107 -215 -112 -216
-4 -1 -34 55 -66 125 -32 71 -79 171 -105 223 -42 85 -50 94 -77 97 -23 2 -41
-6 -73 -34 -70 -60 -70 -62 3 -257 l65 -173 -21 -73 -21 -74 68 -68 c37 -38
66 -70 63 -71 -2 -2 -43 -13 -91 -25 -97 -24 -205 -71 -294 -128 -32 -21 -61
-36 -63 -34 -6 5 -7 18 -9 121 l-2 77 -69 37 -69 37 -68 165 c-55 130 -74 166
-93 173 -38 15 -140 0 -162 -24 -10 -12 -19 -23 -18 -26 0 -3 37 -112 83 -241
45 -129 82 -236 81 -238 -1 -1 -101 34 -222 78 -121 44 -232 80 -246 80 -39 0
-57 -34 -57 -105 0 -34 6 -68 13 -77 6 -9 85 -49 175 -89 l163 -73 37 -65 38
-66 97 -3 c53 -1 97 -5 97 -7 0 -2 -14 -24 -31 -49 -50 -75 -100 -194 -127
-304 l-26 -103 -70 70 -71 70 -80 -21 -81 -22 -159 64 c-88 35 -169 63 -180
63 -21 -2 -101 -85 -111 -116 -3 -10 0 -27 8 -38 7 -11 110 -67 228 -124 118
-58 216 -108 217 -112 1 -4 -86 -48 -194 -98 -107 -49 -209 -98 -224 -107 -41
-25 -39 -63 7 -117 60 -70 63 -70 257 4 l173 65 73 -21 74 -21 68 68 c38 37
70 66 71 63 2 -2 13 -43 25 -91 24 -95 71 -205 125 -289 19 -30 34 -58 34 -63
-1 -10 -26 -12 -138 -15 l-57 -1 -37 -68 -36 -69 -165 -69 c-186 -78 -186 -78
-176 -176 6 -56 28 -99 51 -97 4 0 113 37 242 83 129 45 236 82 238 81 1 -1
-34 -101 -78 -222 -44 -121 -80 -232 -80 -246 0 -39 34 -57 105 -57 34 0 68 6
77 12 9 7 49 86 89 176 l73 163 65 37 66 38 3 97 c1 53 5 97 7 97 2 0 24 -14
49 -31 75 -50 194 -100 304 -127 l103 -26 -70 -70 -70 -71 21 -80 22 -81 -64
-159 c-35 -88 -63 -169 -63 -180 2 -21 85 -101 116 -111 10 -3 28 1 39 8 12 8
66 107 124 228 56 118 106 216 111 217 4 1 34 -55 66 -125 32 -71 79 -171 105
-223 42 -85 50 -94 77 -97 23 -2 41 6 73 34 71 60 71 62 -3 257 l-65 173 21
73 21 74 -68 68 c-37 38 -66 70 -63 71 2 2 43 13 91 25 95 24 205 71 289 125
30 19 58 34 63 34 10 -1 12 -23 15 -133 l1 -62 69 -37 69 -37 68 -165 c55
-130 74 -166 93 -173 38 -15 140 0 162 24 10 12 19 23 18 26 0 3 -37 112 -83
241 -45 129 -82 236 -81 238 1 1 101 -34 222 -78 121 -44 232 -80 246 -80 39
0 57 34 57 105 0 34 -6 68 -12 77 -7 9 -86 49 -176 89 l-163 73 -37 65 -38 66
-97 3 c-88 2 -114 10 -87 27 16 10 80 131 110 208 15 39 35 107 45 151 l17 78
72 -71 71 -70 80 21 81 22 159 -64 c88 -35 169 -63 180 -63 21 2 101 85 111
116 3 10 0 27 -8 38 -7 11 -110 67 -228 124 -118 58 -216 108 -217 112 -1 4
86 48 194 98 107 49 209 98 224 107 41 25 39 63 -7 117 -60 70 -63 70 -257 -4
l-173 -65 -73 21 -74 21 -68 -68 c-38 -37 -70 -66 -71 -63 -2 2 -13 43 -25 91
-24 95 -71 205 -125 289 -19 30 -36 58 -39 63 -2 6 38 11 96 12 l100 2 39 70
40 70 164 68 c185 78 185 78 175 176 -6 56 -28 99 -50 97 -5 0 -114 -37 -243
-83 -129 -45 -236 -82 -238 -81 -1 1 34 101 78 222 44 121 80 232 80 246 0 39
-34 57 -105 57 -34 0 -68 -6 -77 -12 -9 -7 -49 -86 -89 -176 l-73 -163 -65
-37 -66 -38 -3 -97 c-1 -53 -5 -97 -7 -97 -2 0 -24 14 -49 31 -75 50 -194 100
-304 127 l-103 26 70 70 70 71 -21 80 -22 81 66 164 c46 115 63 171 58 185 -8
23 -104 105 -123 105 -7 0 -21 -6 -31 -13z m-328 -1144 l3 -110 -53 -18 c-29
-9 -77 -30 -107 -47 l-54 -30 -78 78 c-88 88 -88 85 0 138 81 50 245 110 276
102 6 -1 11 -50 13 -113z m365 81 c69 -25 197 -92 197 -104 0 -3 -35 -40 -78
-83 l-78 -78 -59 27 c-32 15 -79 32 -104 39 l-46 11 -3 113 -3 114 51 -7 c28
-4 84 -18 123 -32z m403 -325 c40 -67 90 -197 96 -249 l3 -35 -111 -3 -111 -3
-18 53 c-9 29 -30 77 -47 107 l-30 54 78 78 c88 89 84 89 140 -2z m-1193 -27
l78 -78 -27 -59 c-15 -32 -32 -79 -39 -104 l-11 -46 -113 -3 -114 -3 7 51 c9
69 50 182 94 258 20 34 39 62 42 62 3 0 40 -35 83 -78z m648 -127 c86 -43 159
-153 159 -239 0 -157 -148 -291 -301 -273 -85 10 -172 74 -213 155 -66 131 11
312 154 363 65 23 148 20 201 -6z m645 -376 c-9 -68 -50 -181 -94 -256 -20
-35 -39 -63 -42 -63 -3 0 -40 35 -83 78 l-78 78 30 65 c16 35 32 80 36 99 4
19 9 38 12 43 2 4 54 7 115 7 l111 0 -7 -51z m-1271 -31 c9 -29 30 -77 47
-107 l30 -54 -78 -78 c-88 -88 -85 -88 -138 0 -53 87 -114 260 -100 282 3 5
54 9 113 9 l109 0 17 -52z m919 -357 l78 -78 -33 -25 c-80 -60 -225 -122 -300
-130 l-34 -3 -3 111 -3 112 55 17 c30 9 76 30 103 46 26 15 50 28 53 28 3 1
41 -34 84 -78z m-639 33 c32 -15 79 -32 104 -39 l46 -11 3 -113 3 -114 -51 7
c-87 12 -217 64 -310 126 -12 8 0 24 65 90 44 44 80 80 81 80 1 0 28 -12 59
-26z"/>
</g>
</svg>
